# xmcd CD database file
#
# Track frame offsets:
#	150
#	15307
#	28364
#	44719
#	65801
#	87708
#	111713
#
# Disc length: 1629 seconds
#
# Revision: 0
# Processed by: cddbd v1.5.1PL0 Copyright (c) Steve Scherf et al.
# Submitted via: CDex 1.51
#
DISCID=6b065b07
DTITLE=lucas for sheriff - cigarettes don't change things
DYEAR=2004
DGENRE=Country
TTITLE0=cigarettes don't change things
TTITLE1=fireflies and whiskey bottles
TTITLE2=muddy footprints
TTITLE3=walk these hills
TTITLE4=hallelujah
TTITLE5=clementine
TTITLE6=salty kisses
EXTD=YEAR: 2004
EXTT0=
EXTT1=
EXTT2=
EXTT3=
EXTT4=
EXTT5=
EXTT6=
PLAYORDER=
